<svg width="35" height="35" viewBox="0 0 35 35" fill="none" xmlns="http://www.w3.org/2000/svg">
<path d="M27.0517 24.6949L34.19 31.8316L31.8317 34.1899L24.695 27.0516C22.0396 29.1803 18.7367 30.3381 15.3334 30.3333C7.05337 30.3333 0.333374 23.6133 0.333374 15.3333C0.333374 7.05325 7.05337 0.333252 15.3334 0.333252C23.6134 0.333252 30.3334 7.05325 30.3334 15.3333C30.3382 18.7366 29.1804 22.0395 27.0517 24.6949ZM23.7084 23.4583C25.8236 21.2831 27.0048 18.3673 27 15.3333C27 8.88659 21.7784 3.66659 15.3334 3.66659C8.88671 3.66659 3.66671 8.88659 3.66671 15.3333C3.66671 21.7783 8.88671 26.9999 15.3334 26.9999C18.3674 27.0047 21.2832 25.8234 23.4584 23.7083L23.7084 23.4583Z" fill="white"/>
</svg>
